<svg width="32" height="33" viewBox="0 0 32 33" fill="none" xmlns="http://www.w3.org/2000/svg">
<g clip-path="url(#clip0_1032_135)">
<g clip-path="url(#clip1_1032_135)">
<g clip-path="url(#clip2_1032_135)">
<g clip-path="url(#clip3_1032_135)">
<path d="M4.89491 4.12915C4.89405 4.12915 4.89308 4.12915 4.89222 4.12915C4.58957 4.12915 4.3049 4.24713 4.08995 4.46154C3.87263 4.67832 3.75293 4.96697 3.75293 5.27426V22.445C3.75293 23.0746 4.26719 23.5881 4.89944 23.5897C7.56482 23.5961 12.0304 24.1516 15.111 27.3755V9.40583C15.111 9.19239 15.0565 8.99187 14.9536 8.82595C12.4252 4.75407 7.56633 4.1354 4.89491 4.12915Z" fill="#E74040"/>
<path d="M28.2467 22.4451V5.27426C28.2467 4.96697 28.127 4.67832 27.9096 4.46154C27.6947 4.24713 27.4098 4.12915 27.1075 4.12915C27.1065 4.12915 27.1055 4.12915 27.1047 4.12915C24.4334 4.13551 19.5745 4.75418 17.046 8.82606C16.9431 8.99198 16.8887 9.19249 16.8887 9.40594V27.3755C19.9693 24.1516 24.4349 23.5961 27.1003 23.5897C27.7324 23.5881 28.2467 23.0746 28.2467 22.4451Z" fill="#E74040"/>
<path d="M30.8554 8.08911H30.0252V22.4451C30.0252 24.0527 28.7153 25.3637 27.1052 25.3677C24.8444 25.373 21.1166 25.8151 18.4766 28.3138C23.0426 27.1959 27.8559 27.9226 30.5991 28.5477C30.9416 28.6257 31.2956 28.5452 31.57 28.3264C31.8434 28.1082 32.0003 27.7821 32.0003 27.432V9.234C32.0004 8.60273 31.4867 8.08911 30.8554 8.08911Z" fill="#E74040"/>
<path d="M1.97517 22.4451V8.08911H1.14489C0.513726 8.08911 0 8.60273 0 9.234V27.4317C0 27.7819 0.156876 28.1079 0.430331 28.3261C0.704541 28.5447 1.05816 28.6256 1.40122 28.5474C4.14439 27.9222 8.95788 27.1955 13.5237 28.3135C10.8837 25.8149 7.15596 25.3729 4.89515 25.3676C3.28513 25.3637 1.97517 24.0527 1.97517 22.4451Z" fill="#E74040"/>
</g>
</g>
</g>
</g>
<defs>
<clipPath id="clip0_1032_135">
<rect width="32" height="32" fill="white" transform="translate(0 0.353027)"/>
</clipPath>
<clipPath id="clip1_1032_135">
<rect width="32" height="24.4476" fill="white" transform="translate(0 4.12915)"/>
</clipPath>
<clipPath id="clip2_1032_135">
<rect width="32" height="24.4476" fill="white" transform="translate(0 4.12915)"/>
</clipPath>
<clipPath id="clip3_1032_135">
<rect width="32" height="24.4476" fill="white" transform="translate(0 4.12915)"/>
</clipPath>
</defs>
</svg>
