<svg width="32" height="33" viewBox="0 0 32 33" fill="none" xmlns="http://www.w3.org/2000/svg">
<g clip-path="url(#clip0_1032_115)">
<g clip-path="url(#clip1_1032_115)">
<g clip-path="url(#clip2_1032_115)">
<path d="M6.61288 25.8986H28.4103C28.477 25.8986 28.5417 25.8891 28.6038 25.8743C28.6088 25.8743 28.6129 25.8751 28.6178 25.8751C29.0832 25.8751 29.4612 25.4975 29.4612 25.0319V1.19636C29.4613 0.730839 29.0832 0.353027 28.6178 0.353027H28.412H7.96166H6.61407C4.36935 0.353027 2.54348 2.17931 2.54348 4.4234C2.54348 4.4535 2.54941 4.48206 2.55233 4.51111C2.54941 6.5841 2.5237 25.6322 2.54941 28.1363C2.5478 28.1853 2.54181 28.2331 2.54181 28.2825C2.54181 30.4404 4.23141 32.2069 6.35664 32.3404C6.39928 32.3469 6.44108 32.3531 6.48532 32.3531H28.6178C29.0831 32.3531 29.4611 31.9755 29.4611 31.5098V28.3353C29.4611 27.8699 29.083 27.492 28.6178 27.492C28.1525 27.492 27.7744 27.87 27.7744 28.3353V30.6665H6.61288C5.33133 30.6665 4.28519 29.649 4.23378 28.3802C4.23503 28.3576 4.23914 28.3362 4.23872 28.3131C4.23789 28.276 4.23663 28.2184 4.2358 28.1418C4.30951 26.8931 5.34596 25.8986 6.61288 25.8986ZM7.18793 4.4234C7.18793 3.95788 7.56574 3.58007 8.03126 3.58007C8.49679 3.58007 8.8746 3.95788 8.8746 4.4234V21.5538C8.8746 22.0191 8.49679 22.3971 8.03126 22.3971C7.56574 22.3971 7.18793 22.0191 7.18793 21.5538V4.4234Z" fill="#E74040"/>
</g>
</g>
</g>
<defs>
<clipPath id="clip0_1032_115">
<rect width="32" height="32" fill="white" transform="translate(0 0.353027)"/>
</clipPath>
<clipPath id="clip1_1032_115">
<rect width="32" height="32" fill="white" transform="translate(0 0.353027)"/>
</clipPath>
<clipPath id="clip2_1032_115">
<rect width="26.9231" height="32.0001" fill="white" transform="translate(2.53809 0.353027)"/>
</clipPath>
</defs>
</svg>
